<mxfile host="app.diagrams.net" modified="2024-06-16T14:19:14.373Z" agent="Mozilla/5.0 (Windows NT 10.0; Win64; x64) AppleWebKit/537.36 (KHTML, like Gecko) Chrome/126.0.0.0 Safari/537.36 Edg/126.0.0.0" version="24.5.4" etag="HLCXovl1NwurU7POJy4Q" type="github">
  <diagram name="第 1 页" id="Avx0lzV3Qbp26vr4kG2r">
    <mxGraphModel>
      <root>
        <mxCell id="0" />
        <mxCell id="1" parent="0" />
      </root>
    </mxGraphModel>
  </diagram>
</mxfile>
